<svg width="932" height="380" viewBox="0 0 932 380" fill="none" xmlns="http://www.w3.org/2000/svg">
<g clip-path="url(#clip0_0_3)">
<path opacity="0.5" d="M83.987 468.729V412.142C83.987 407.868 80.5184 404.403 76.2397 404.403H21.525C17.2463 404.403 13.7777 400.939 13.7777 396.665V342.012C13.7777 337.738 10.3092 334.274 6.03051 334.274H-48.6843C-52.9629 334.274 -56.4315 330.809 -56.4315 326.535V271.882C-56.4315 267.609 -59.9 264.144 -64.1787 264.144H-118.893C-123.172 264.144 -126.641 260.679 -126.641 256.406V201.753C-126.641 197.479 -130.109 194.014 -134.388 194.014H-191.04M154.196 468.729V412.142C154.196 407.868 150.728 404.403 146.449 404.403H91.7342C87.4555 404.403 83.987 400.939 83.987 396.665V342.012C83.987 337.738 80.5184 334.274 76.2397 334.274H21.525C17.2463 334.274 13.7777 330.809 13.7777 326.535V271.882C13.7777 267.609 17.2463 264.144 21.525 264.144H76.2397C80.5184 264.144 83.987 267.609 83.987 271.882V327.503L84.0548 327.96C84.5746 331.465 87.5531 334.082 91.0997 334.15L97.5446 334.274H146.449C150.728 334.274 154.196 330.809 154.196 326.535V271.882C154.196 267.609 150.728 264.144 146.449 264.144H91.25L89.4109 264.022C86.3587 263.818 83.987 261.286 83.987 258.231V252.295M83.987 258.34V201.753C83.987 197.479 80.5184 194.014 76.2397 194.014H21.525C17.2463 194.014 13.7777 190.55 13.7777 186.276V131.623C13.7777 127.349 10.3092 123.885 6.03051 123.885H-48.6843C-52.9629 123.885 -56.4315 120.42 -56.4315 116.146V61.4934C-56.4315 57.2196 -59.9 53.755 -64.1787 53.755H-118.893C-123.172 53.755 -126.641 50.2903 -126.641 46.0165V-8.63627C-126.641 -12.9101 -130.109 -16.3747 -134.388 -16.3747H-191.04" stroke="url(#paint0_linear_0_3)" stroke-width="0.870133"/>
<path d="M899.999 -27.2913V29.2961C899.999 33.5699 896.53 37.0346 892.251 37.0346H837.537C833.258 37.0346 829.789 40.4992 829.789 44.773V99.4258C829.789 103.7 826.321 107.164 822.042 107.164H767.327C763.049 107.164 759.58 110.629 759.58 114.903V169.555C759.58 173.829 756.112 177.294 751.833 177.294H697.118C692.84 177.294 689.371 180.759 689.371 185.032V239.685C689.371 243.959 685.902 247.424 681.624 247.424H624.972M970.208 -27.2913V29.2961C970.208 33.5699 966.739 37.0346 962.461 37.0346H907.746C903.467 37.0346 899.999 40.4992 899.999 44.773V99.4258C899.999 103.7 896.53 107.164 892.251 107.164H837.537C833.258 107.164 829.789 110.629 829.789 114.903V169.555C829.789 173.829 833.258 177.294 837.537 177.294H892.251C896.53 177.294 899.999 173.829 899.999 169.555V113.935L900.066 113.478C900.586 109.973 903.565 107.356 907.111 107.288L913.556 107.164H962.461C966.739 107.164 970.208 110.629 970.208 114.903V169.555C970.208 173.829 966.739 177.294 962.461 177.294H907.262L905.423 177.416C902.37 177.62 899.999 180.152 899.999 183.207V189.143M899.999 183.098V239.685C899.999 243.959 896.53 247.424 892.251 247.424H837.537C833.258 247.424 829.789 250.888 829.789 255.162V309.815C829.789 314.089 826.321 317.553 822.042 317.553H767.327C763.049 317.553 759.58 321.018 759.58 325.292V379.945C759.58 384.218 756.112 387.683 751.833 387.683H697.118C692.84 387.683 689.371 391.148 689.371 395.421V450.074C689.371 454.348 685.902 457.813 681.624 457.813H624.972" stroke="url(#paint1_linear_0_3)" stroke-width="0.870133"/>
</g>
<defs>
<linearGradient id="paint0_linear_0_3" x1="154.196" y1="468.729" x2="-182.83" y2="51.205" gradientUnits="userSpaceOnUse">
<stop stop-color="#0D284C"/>
<stop offset="0.9375" stop-color="#29D6E6"/>
</linearGradient>
<linearGradient id="paint1_linear_0_3" x1="970.208" y1="-27.2913" x2="633.182" y2="390.233" gradientUnits="userSpaceOnUse">
<stop stop-color="#9E9E9E"/>
<stop offset="1" stop-color="#2A2E38" stop-opacity="0.8"/>
</linearGradient>
<clipPath id="clip0_0_3">
<rect width="932" height="379.35" fill="white"/>
</clipPath>
</defs>
</svg>
