<?xml version="1.0" encoding="UTF-8" standalone="no"?>
<!DOCTYPE svg PUBLIC "-//W3C//DTD SVG 1.1//EN" "http://www.w3.org/Graphics/SVG/1.1/DTD/svg11.dtd">
<svg xmlns="http://www.w3.org/2000/svg" xmlns:xlink="http://www.w3.org/1999/xlink" version="1.1" width="70" height="36" viewBox="0 0 70 36" xml:space="preserve">
<desc>Created with Fabric.js 3.6.3</desc>
<defs>
</defs>
<g transform="matrix(0.11983276427639548 0 0 0.11983276427639548 32.42370901328976 14.878212967683545)">
<g style="">
		<g transform="matrix(1 0 0 1 0.12510090988195088 28.49601724230621)" clip-path="url(#CLIPPATH_16095)">
<clipPath id="CLIPPATH_16095">
	<rect transform="matrix(1 0 0 1 -0.12510090988195088 -28.496017242306202)" x="-62.99442083444571" y="-173.88026329286063" rx="0" ry="0" width="125.98884166889142" height="347.76052658572127"/>
</clipPath>
<g style="">
		<g transform="matrix(0.75067 0 0 0.7506699999999998 0.31997414916300926 -24.08294067543899)">
<path style="stroke: none; stroke-width: 1; stroke-dasharray: none; stroke-linecap: butt; stroke-dashoffset: 0; stroke-linejoin: miter; stroke-miterlimit: 4; fill: rgb(0,0,0); fill-rule: nonzero; opacity: 1;" transform=" translate(-1.1988945197796994, -28.424020307939543)" d="M -5.082 84.477 C -21.071 65.492 -45.933 59.927 -62.184 72.822 C -72.403 80.93 -80.748 94.71 -76.548 122.135 L -77.671 87.164 C -78.121 70.288 -77.671 -34.391 -77.671 -34.391 C -77.675 -36.383 -77.321 -38.36 -76.625 -40.226 C -74.19 -46.738 -66.645 -62.58 -49.212 -69.018 C -36.482 -73.036 -22.702 -72.069 -10.658 -66.314 C -9.76 -65.884 -8.871 -65.433 -7.994 -64.961 C -1.228 -61.357 3.796 -56.674 12.121 -48.915 C 16.301 -45.019 21.277 -39.982 24.715 -36.442 C 25.631 -35.65 26.985 -35.636 27.915 -36.409 C 45.346 -48.256 60.88 -51.486 70.531 -45.271 C 73.029 -43.635 75.163 -41.503 76.801 -39.006 C 78.703 -36.118 79.7 -32.728 79.667 -29.27 L 79.667 -18.123 C 79.667 -0.597 80.798 29.567 79.959 56.347 C 79.008 86.686 76.1 112.873 76.617 114.912 C 79.468 126.149 83.36 104.369 58.874 124.575 C 43.573 137.201 24.779 114.966 7.235 99.986 M -74.902 86.006 C -77.62 92.706 -70.784 76.262 -54.934 69.04 C -47.309 65.566 -38.842 61.646 -26.127 67.755 C -17.105 72.09 -7.724 82.702 4.601 95.812 C 5.669 96.948 6.261 101.369 7.308 102.506 C 27.175 124.077 58.094 141.101 75.708 109.778 C 76.843 107.76 76.131 72.187 75.451 36.851 C 75.053 16.196 74.667 -4.378 74.667 -18.123 L 74.667 -29.27 C 74.699 -31.737 73.995 -34.157 72.647 -36.223 C 71.388 -38.151 69.747 -39.8 67.824 -41.067 C 60.057 -46.07 46.189 -42.783 30.727 -32.275 C 27.798 -30.104 23.723 -30.393 21.13 -32.957 C 17.73 -36.457 12.816 -41.431 8.712 -45.257 C 0.686 -52.737 -4.158 -57.252 -10.347 -60.549 C -11.16 -60.986 -11.982 -61.404 -12.814 -61.803 C -23.651 -66.926 -36.008 -67.827 -47.473 -64.33 C -62.973 -58.606 -69.748 -44.342 -71.942 -38.475 C -72.428 -37.17 -72.674 -35.788 -72.67 -34.396 L -74.902 86.006 Z" stroke-linecap="round"/>
</g>
		<g transform="matrix(0.75067 0 0 0.7506699999999998 0.1706699999999941 -67.39173556499999)">
<path style="stroke: none; stroke-width: 1; stroke-dasharray: none; stroke-linecap: butt; stroke-dashoffset: 0; stroke-linejoin: miter; stroke-miterlimit: 4; fill: rgb(0,0,0); fill-rule: nonzero; opacity: 1;" transform=" translate(-1, 29.269499999999994)" d="M 40.499 73.551 C 40.324 73.551 40.15 73.55 39.975 73.548 C 20.385 73.252 6.778 56.246 -6.38 39.801 C -18.663 24.45 -30.277 9.973 -45.374 10.381 C -54.56 10.643 -63.932 16.583 -73.229 28.035 L -77.669 33.505 L -77.669 -15.041 L -77.372 -15.595 C -74.648 -20.662 -64.072 -37.605 -42.315 -42.851 C -27.038 -46.533 -10.161 -43.436 0.682 -34.959 C 4.831 -31.467 8.676 -27.628 12.175 -23.484 C 14.842 -20.403 17.329 -17.171 19.624 -13.803 C 20.698 -12.283 21.913 -10.563 23.454 -8.456 C 30.554 1.254 34.114 6.128 38.008 9.774 C 44.432 15.79 51.04 22.016 59.796 21.644 C 66.22 21.373 71.335 17.651 74.67 14.302 L 74.67 -13.364 C 68.699 -9.671 61.752 -7.871 54.739 -8.199 C 39.79 -9.022 29.507 -21.949 23.07 -31.604 L 27.23 -34.377 C 36.511 -20.457 45.338 -13.725 55.012 -13.193 C 64.683 -12.665 72.077 -17.284 75.617 -20.088 L 79.669 -23.298 L 79.669 16.302 L 78.989 17.024 C 75.054 21.211 68.566 26.277 60.005 26.64 C 49.211 27.093 41.432 19.83 34.588 13.42 C 30.354 9.456 26.7 4.457 19.418 -5.503 C 18.11 -7.297 16.817 -9.101 15.54 -10.917 C 13.342 -14.147 10.959 -17.248 8.402 -20.202 C 5.112 -24.105 1.499 -27.725 -2.398 -31.022 C -12.086 -38.595 -27.293 -41.33 -41.144 -37.992 C -60.167 -33.404 -69.783 -18.938 -72.671 -13.772 L -72.671 19.816 C -63.8 10.494 -54.686 5.644 -45.516 5.383 C -27.962 4.875 -14.985 21.045 -2.476 36.677 C 9.959 52.218 22.816 68.287 40.051 68.547 C 40.199 68.55 40.347 68.552 40.494 68.551 C 49.584 68.551 67.114 56.05 76.255 47.741 L 78.556 52.503 C 68.466 61.675 50.87 73.551 40.5 73.551 M 27 -56.5 C 12.204 -56.5 2.957 -72.517 10.355 -85.33 C 17.753 -98.143 36.247 -98.143 43.645 -85.33 C 45.332 -82.408 46.22 -79.094 46.22 -75.72 C 46.208 -65.11 37.61 -56.512 27 -56.5 M 27 -89.94 C 16.053 -89.94 9.212 -78.09 14.685 -68.61 C 20.158 -59.13 33.842 -59.13 39.315 -68.61 C 40.563 -70.772 41.22 -73.224 41.22 -75.72 C 41.211 -83.57 34.85 -89.931 27 -89.94 M -10.15 -86.221 C -16.66 -86.221 -21.939 -91.5 -21.939 -98.011 C -21.939 -104.522 -16.66 -109.8 -10.149 -109.8 C -3.638 -109.8 1.638 -104.52 1.638 -98.01 C 1.632 -91.503 -3.64 -86.23 -10.15 -86.221 M -10.15 -104.8 C -15.377 -104.8 -18.644 -99.142 -16.03 -94.615 C -13.417 -90.088 -6.883 -90.088 -4.27 -94.615 C -3.674 -95.647 -3.36 -96.818 -3.36 -98.01 C -3.364 -101.758 -6.402 -104.796 -10.15 -104.8 M 17.711 -112.228 C 10.066 -112.228 5.288 -120.504 9.111 -127.125 C 12.933 -133.745 22.489 -133.745 26.311 -127.125 C 27.183 -125.615 27.642 -123.902 27.642 -122.158 C 27.636 -116.678 23.193 -112.235 17.712 -112.229 M 17.711 -127.089 C 13.915 -127.089 11.543 -122.98 13.441 -119.693 C 14.321 -118.167 15.949 -117.227 17.711 -117.227 C 21.507 -117.227 23.879 -121.336 21.981 -124.624 C 21.101 -126.149 19.473 -127.089 17.711 -127.089" stroke-linecap="round"/>
</g>
		<g transform="matrix(1 0 0 1 -24.999662697089093 120.21000829063541)">
<path style="stroke: none; stroke-width: 1; stroke-dasharray: none; stroke-linecap: butt; stroke-dashoffset: 0; stroke-linejoin: miter; stroke-miterlimit: 4; fill: rgb(0,0,0); fill-rule: nonzero; opacity: 1;" transform=" translate(-225.0003373029109, -370.2100082906354)" d="M 222.618 358.321 h 6.179 c -0.874 -1.312 -1.399 -3 -1.399 -4.833 c 0 -2.04 0.654 -3.904 1.717 -5.268 c 1.14 -1.469 2.743 -2.38 4.534 -2.38 c 1.794 0 3.397 0.909 4.536 2.38 c 1.059 1.364 1.717 3.23 1.717 5.268 c 0 1.827 -0.527 3.519 -1.4 4.833 h 3.34 c 3.642 0 6.938 1.478 9.326 3.863 s 3.863 5.683 3.863 9.326 s -1.475 6.938 -3.863 9.325 s -5.683 3.864 -9.326 3.864 a 13.2 13.2 0 0 1 -5.772 -1.329 a 15.63 15.63 0 0 1 -4.852 7.472 a 15.57 15.57 0 0 1 -10.135 3.738 a 15.57 15.57 0 0 1 -11.05 -4.578 a 15.58 15.58 0 0 1 -4.58 -11.05 q 0.001 -0.374 0.02 -0.762 h -0.57 a 9.9 9.9 0 0 1 -7.017 -2.917 a 9.9 9.9 0 0 1 0 -14.034 a 9.9 9.9 0 0 1 7.017 -2.917 h 3.137 c 0.333 -1.54 0.978 -2.927 1.84 -4.037 c 1.374 -1.772 3.3 -2.867 5.45 -2.867 s 4.08 1.097 5.451 2.867 c 0.862 1.113 1.507 2.497 1.84 4.037 z m 8.715 -1.276 c 0.613 0.788 1.433 1.276 2.314 1.276 c 0.884 0 1.7 -0.488 2.313 -1.276 c 0.694 -0.891 1.121 -2.149 1.121 -3.554 s -0.429 -2.661 -1.12 -3.555 c -0.614 -0.787 -1.433 -1.276 -2.314 -1.276 s -1.7 0.489 -2.314 1.276 c -0.692 0.891 -1.12 2.149 -1.12 3.555 c 0 1.408 0.428 2.66 1.12 3.554 m -20.69 2.792 l -0.007 0.06 q -0.038 0.41 -0.038 0.836 c 0 1.868 0.575 3.54 1.502 4.734 c 0.848 1.09 1.99 1.766 3.23 1.766 s 2.383 -0.675 3.231 -1.766 c 0.927 -1.194 1.502 -2.866 1.502 -4.734 q 0 -0.425 -0.038 -0.836 l -0.005 -0.06 c -0.153 -1.502 -0.68 -2.838 -1.456 -3.836 c -0.846 -1.09 -1.99 -1.766 -3.231 -1.766 s -2.383 0.676 -3.231 1.766 c -0.776 1 -1.305 2.335 -1.453 3.836 z m -2.854 1.3 h -2.89 a 7.1 7.1 0 0 0 -5.028 2.091 a 7.1 7.1 0 0 0 -2.093 5.028 c 0 1.954 0.802 3.735 2.093 5.026 s 3.07 2.094 5.027 2.094 h 2.122 q 0.102 -0.001 0.211 0.016 a 1.41 1.41 0 0 1 1.183 1.6 a 13 13 0 0 0 -0.149 1.962 c 0 3.54 1.435 6.741 3.753 9.06 s 5.523 3.752 9.06 3.752 a 12.78 12.78 0 0 0 8.314 -3.056 a 12.8 12.8 0 0 0 4.332 -7.637 a 1.404 1.404 0 0 1 2.203 -1.037 a 10.2 10.2 0 0 0 2.811 1.377 a 10.4 10.4 0 0 0 3.102 0.47 a 10.34 10.34 0 0 0 7.336 -3.04 a 10.34 10.34 0 0 0 3.039 -7.335 c 0 -2.865 -1.162 -5.459 -3.04 -7.334 a 10.34 10.34 0 0 0 -7.335 -3.039 h -18.97 c -0.081 2.342 -0.862 4.47 -2.088 6.047 c -1.375 1.772 -3.3 2.867 -5.451 2.867 c -2.153 0 -4.079 -1.097 -5.45 -2.867 c -1.225 -1.578 -2.008 -3.707 -2.09 -6.047 z" stroke-linecap="round"/>
</g>
		<g transform="matrix(-0.75067 0 0 -0.7506699999999998 0.1762170557673528 34.33403246693689)">
<path style="stroke: none; stroke-width: 1; stroke-dasharray: none; stroke-linecap: butt; stroke-dashoffset: 0; stroke-linejoin: miter; stroke-miterlimit: 4; fill: rgb(0,0,0); fill-rule: evenodd; opacity: 1;" transform=" translate(-0.537896737891046, -29.141923259305813)" d="M 4.52 96.267 C -32.555 41.406 -71.624 76.012 -75.521 86.014 C -83.218 105.769 -71.153 132.958 -75.072 107.913 C -75.935 102.399 -75.01 94.06 -78.121 82.885 L -78.221 121.965 L -78.592 60.16 L -77.671 -34.391 C -77.675 -36.383 -77.321 -38.36 -76.625 -40.226 C -74.19 -46.738 -66.645 -62.58 -49.212 -69.018 C -36.482 -73.036 -22.702 -72.069 -10.658 -66.314 C -9.76 -65.884 -8.871 -65.433 -7.994 -64.961 C -1.228 -61.357 3.796 -56.674 12.121 -48.915 C 16.301 -45.019 21.277 -39.982 24.715 -36.442 C 25.631 -35.65 26.985 -35.636 27.915 -36.409 C 45.346 -48.256 60.88 -51.486 70.531 -45.271 C 73.029 -43.635 75.163 -41.503 76.801 -39.006 C 78.703 -36.118 79.7 -32.728 79.667 -29.27 L 79.667 -18.123 C 79.667 19.259 79.19 106.147 79.216 110.13 C 79.259 116.729 77.7 113.357 74.357 113.622 C 70.114 113.958 63.215 117.496 55.449 125.565 C 46.496 134.867 33.804 127.033 24.25 117.714 C 16.533 110.187 11.184 100.874 8.044 98.565 M -74.857 115.37 C -80.164 119.059 -77.25 113.954 -77.862 110.103 C -78.588 105.537 -79.672 95.098 -75.476 87.025 C -71.775 79.903 -65.451 74.676 -58.038 70.249 C -42.445 60.936 -20.183 60.848 5.593 94.025 C 13.356 104.017 23.405 118.583 34.254 123.756 C 52.632 132.518 72.198 125.652 74.669 106.991 C 75.325 102.034 74.667 19.137 74.667 -18.123 L 74.667 -29.27 C 74.699 -31.737 73.995 -34.157 72.647 -36.223 C 71.388 -38.151 69.747 -39.8 67.824 -41.067 C 60.057 -46.07 46.189 -42.783 30.727 -32.275 C 27.798 -30.104 23.723 -30.393 21.13 -32.957 C 17.73 -36.457 12.816 -41.431 8.712 -45.257 C 0.686 -52.737 -4.158 -57.252 -10.347 -60.549 C -11.16 -60.986 -11.982 -61.404 -12.814 -61.803 C -23.651 -66.926 -36.008 -67.827 -47.473 -64.33 C -62.973 -58.606 -69.748 -44.342 -71.942 -38.475 C -72.428 -37.17 -72.674 -35.788 -72.67 -34.396 L -74.72 106.01 L -74.857 115.37 Z" stroke-linecap="round"/>
</g>
		<g transform="matrix(-0.75067 0 0 -0.7506699999999998 -0.1706700000000012 45.26116745571815)">
<path style="stroke: none; stroke-width: 1; stroke-dasharray: none; stroke-linecap: butt; stroke-dashoffset: 0; stroke-linejoin: miter; stroke-miterlimit: 4; fill: rgb(0,0,0); fill-rule: nonzero; opacity: 1;" transform=" translate(-1, -14.585413756086986)" d="M 40.499 73.551 C 40.324 73.551 40.15 73.55 39.975 73.548 C 20.385 73.252 6.778 56.246 -6.38 39.801 C -18.663 24.45 -30.277 9.973 -45.374 10.381 C -54.56 10.643 -63.932 16.583 -73.229 28.035 L -77.669 33.505 L -77.669 -15.041 L -77.372 -15.595 C -74.648 -20.662 -64.072 -37.605 -42.315 -42.851 C -27.038 -46.533 -10.161 -43.436 0.682 -34.959 C 4.831 -31.467 8.676 -27.628 12.175 -23.484 C 14.842 -20.403 17.329 -17.171 19.624 -13.803 C 20.698 -12.283 21.913 -10.563 23.454 -8.456 C 30.554 1.254 34.114 6.128 38.008 9.774 C 44.432 15.79 51.04 22.016 59.796 21.644 C 66.22 21.373 71.335 17.651 74.67 14.302 L 74.67 -13.364 C 68.699 -9.671 61.752 -7.871 54.739 -8.199 C 39.79 -9.022 29.507 -21.949 23.07 -31.604 L 27.23 -34.377 C 36.511 -20.457 45.338 -13.725 55.012 -13.193 C 64.683 -12.665 72.077 -17.284 75.617 -20.088 L 79.669 -23.298 L 79.669 16.302 L 78.989 17.024 C 75.054 21.211 68.566 26.277 60.005 26.64 C 49.211 27.093 41.432 19.83 34.588 13.42 C 30.354 9.456 26.7 4.457 19.418 -5.503 C 18.11 -7.297 16.817 -9.101 15.54 -10.917 C 13.342 -14.147 10.959 -17.248 8.402 -20.202 C 5.112 -24.105 1.499 -27.725 -2.398 -31.022 C -12.086 -38.595 -27.293 -41.33 -41.144 -37.992 C -60.167 -33.404 -69.783 -18.938 -72.671 -13.772 L -72.671 19.816 C -63.8 10.494 -54.686 5.644 -45.516 5.383 C -27.962 4.875 -14.985 21.045 -2.476 36.677 C 9.959 52.218 22.816 68.287 40.051 68.547 C 40.199 68.55 40.347 68.552 40.494 68.551 C 49.584 68.551 66.633 56.531 75.774 48.223 L 79.137 51.923 C 69.047 61.095 50.869 73.551 40.499 73.551" stroke-linecap="round"/>
</g>
</g>
</g>
</g>
</g>
<g transform="matrix(1 0 0 1 35.475 18.474999999999998)" style=""><path fill="#000000" opacity="1" d="M-27.51 2.57Q-27.29 5.77-25.94 7.76Q-24.58 9.74-21.76 9.74L-21.76 9.74Q-20.68 9.74-19.74 9.29Q-18.81 8.84-18.23 7.90Q-17.65 6.95-17.65 5.53L-17.65 5.53Q-17.65 4.31-18.25 3.35Q-18.84 2.38-19.86 1.58Q-20.88 0.78-22.57-0.24L-22.57-0.24Q-24.46-1.37-25.60-2.26Q-26.74-3.16-27.47-4.40Q-28.20-5.64-28.20-7.32L-28.20-7.32Q-28.20-9.11-27.39-10.34Q-26.58-11.58-25.23-12.19Q-23.89-12.80-22.27-12.80L-22.27-12.80Q-21.29-12.80-20.59-12.64Q-19.89-12.47-19.43-12.23Q-18.96-11.99-18.41-11.62L-18.41-11.62Q-17.70-11.18-17.33-11.18L-17.33-11.18Q-17.04-11.18-16.88-11.51Q-16.73-11.84-16.64-12.57L-16.64-12.57L-15.91-12.57Q-16.06-10.71-16.06-6.12L-16.06-6.12L-16.79-6.12Q-16.91-7.74-17.49-9.11Q-18.07-10.48-19.19-11.34Q-20.31-12.20-21.97-12.20L-21.97-12.20Q-23.08-12.20-23.96-11.73Q-24.84-11.27-25.34-10.44Q-25.83-9.60-25.83-8.52L-25.83-8.52Q-25.83-6.81-24.80-5.76Q-23.76-4.71-22.38-3.87Q-21.00-3.03-20.52-2.74L-20.52-2.74Q-18.53-1.49-17.38-0.57Q-16.22 0.34-15.53 1.56Q-14.83 2.77-14.83 4.37L-14.83 4.37Q-14.83 6.31-15.73 7.66Q-16.62 9.01-18.14 9.69Q-19.66 10.37-21.54 10.37L-21.54 10.37Q-23.05 10.37-24.02 10.05Q-25.00 9.74-25.86 9.20L-25.86 9.20Q-26.57 8.75-26.94 8.75L-26.94 8.75Q-27.23 8.75-27.39 9.08Q-27.54 9.41-27.63 10.14L-27.63 10.14L-28.36 10.14Q-28.24 8.41-28.24 2.57L-28.24 2.57L-27.51 2.57Z"/><path fill="#000000" opacity="1" d="M-9.15 16.08L-10.42 16.08L-10.42-17.18L-9.15-17.18L-9.15 16.08Z"/><path fill="#000000" opacity="1" d=""/><path fill="#000000" opacity="1" d="M5.73 16.08L4.47 16.08L4.47-17.18L5.73-17.18L5.73 16.08Z"/><path fill="#000000" opacity="1" d="M27.57 9.92Q27.49 8.94 27.32 8.50Q27.14 8.06 26.80 8.06L26.80 8.06Q26.55 8.06 26.15 8.32L26.15 8.32Q25.21 8.98 24.42 9.41Q23.62 9.83 22.61 10.10Q21.59 10.37 20.31 10.37L20.31 10.37Q17.30 10.37 15.04 9.01Q12.78 7.66 11.54 5.07Q10.30 2.49 10.30-1.07L10.30-1.07Q10.30-4.56 11.58-7.24Q12.86-9.93 15.14-11.41Q17.42-12.89 20.34-12.89L20.34-12.89Q22.22-12.89 23.55-12.35Q24.89-11.81 26.15-10.84L26.15-10.84Q26.49-10.56 26.77-10.56L26.77-10.56Q27.42-10.56 27.57-12.44L27.57-12.44L28.30-12.44Q28.17-10.39 28.17-5.18L28.17-5.18L27.45-5.18Q27.22-6.60 27.02-7.38Q26.83-8.17 26.57-8.72Q26.31-9.26 25.86-9.85L25.86-9.85Q24.90-11.08 23.44-11.70Q21.97-12.32 20.28-12.32L20.28-12.32Q18.22-12.32 16.68-10.96Q15.14-9.60 14.29-7.09Q13.44-4.58 13.44-1.20L13.44-1.20Q13.44 2.24 14.37 4.71Q15.29 7.18 16.91 8.46Q18.53 9.74 20.58 9.74L20.58 9.74Q22.16 9.74 23.65 9.14Q25.15 8.54 25.98 7.33L25.98 7.33Q26.63 6.47 26.91 5.46Q27.19 4.45 27.45 2.33L27.45 2.33L28.17 2.33Q28.17 7.78 28.30 9.92L28.30 9.92L27.57 9.92Z"/></g></svg>
